PathFileType	4	(X/Y/Z)	C:/Users/opensim2020/Desktop/walking_exp_matlab/subject01_walking15_straight_01.trc	
DataRate	CameraRate	NumFrames	NumMarkers	Units	OrigDataRate	OrigDataStartFrame	OrigNumFrames	
100.00	100.00	4	43	mm	100.00	683	125	
Frame#	Time	LFHD			RFHD			LBHD			RBHD			C7			T10			CLAV			STRN			RBAK			LSHO			LUPA			LELB			LFRM			LWRA			LWRB			LFIN			RSHO			RUPA			RELB			RFRM			RWRA			RWRB			RFIN			LASI			RASI			LPSI			RPSI			LTHI			LKNE			LTIB			LANK			LHEE			LTOE			RTHI			RKNE			RTIB			RANK			RHEE			RTOE			*39			*40			*41			*42			
		X1	Y1	Z1	X2	Y2	Z2	X3	Y3	Z3	X4	Y4	Z4	X5	Y5	Z5	X6	Y6	Z6	X7	Y7	Z7	X8	Y8	Z8	X9	Y9	Z9	X10	Y10	Z10	X11	Y11	Z11	X12	Y12	Z12	X13	Y13	Z13	X14	Y14	Z14	X15	Y15	Z15	X16	Y16	Z16	X17	Y17	Z17	X18	Y18	Z18	X19	Y19	Z19	X20	Y20	Z20	X21	Y21	Z21	X22	Y22	Z22	X23	Y23	Z23	X24	Y24	Z24	X25	Y25	Z25	X26	Y26	Z26	X27	Y27	Z27	X28	Y28	Z28	X29	Y29	Z29	X30	Y30	Z30	X31	Y31	Z31	X32	Y32	Z32	X33	Y33	Z33	X34	Y34	Z34	X35	Y35	Z35	X36	Y36	Z36	X37	Y37	Z37	X38	Y38	Z38	X39	Y39	Z39	X40	Y40	Z40	X41	Y41	Z41	X42	Y42	Z42	X43	Y43	Z43	

16	0.150	1352.46411	-733.70367	1646.45154	1463.90308	-711.71368	1654.68054	1370.57764	-846.34021	1597.57080	1488.88501	-825.87067	1604.80823	1397.09326	-870.59094	1412.73206	1408.53735	-934.37512	1124.13062	1417.97998	-729.48181	1337.03687	1418.06677	-702.37347	1177.50769	1464.91956	-950.11572	1226.74084	1253.47839	-767.02069	1377.04077	1160.98987	-777.51007	1198.70923	1150.36169	-771.26672	1044.34900	1154.26453	-670.22235	980.78656	1206.28162	-545.60236	952.64215	1176.22021	-574.35156	908.71741	1181.11646	-491.77161	898.37988	1556.29810	-815.30280	1379.61414	1638.85107	-933.57935	1200.57825	1645.67175	-954.71790	1079.36841	1681.66760	-969.26196	962.77002	1678.44751	-929.21472	824.49347	1709.01514	-975.63391	842.68201	1718.27161	-967.74292	756.67499	1308.19800	-771.40479	909.04468	1525.98706	-764.58453	916.53351	1370.59717	-954.61304	927.20374	1514.89661	-946.77289	925.97913	1276.57349	-876.19495	579.95990	1299.72351	-922.50989	451.21561	1301.99731	-1022.27502	287.75974	1369.44287	-1105.40088	86.86972	1422.13074	-1157.88977	72.09641	1373.14807	-969.03998	27.92444	1611.46362	-731.28778	597.07385	1589.09082	-652.30328	462.63028	1609.46753	-648.79065	289.13501	1578.36340	-590.47552	83.05754	1526.84265	-617.97015	28.38513	1584.61548	-445.48557	88.25311	1441.71155	-726.59662	1687.08459	-3101.83618	1973.14832	1023.60577	-3140.70874	2012.53967	1021.99646			 
17	0.160	1355.11926	-722.07660	1645.38391	1466.37427	-699.59180	1653.50208	1373.48071	-834.56818	1596.66614	1491.62634	-813.60425	1603.47119	1399.44666	-858.67719	1411.38611	1411.51831	-921.75018	1122.68250	1419.78638	-717.25177	1336.09705	1419.44031	-689.77417	1176.57874	1467.55237	-937.51324	1224.94971	1255.42615	-755.34338	1376.16467	1162.88916	-765.17206	1197.91150	1151.81128	-757.88000	1043.57715	1155.74951	-655.81299	981.79852	1207.73267	-530.52557	956.05139	1177.33594	-558.51636	911.76520	1182.62341	-475.63834	902.88159	1558.47595	-802.90845	1378.20117	1641.03003	-921.08948	1199.00378	1648.01086	-942.22968	1077.91528	1684.03503	-957.22717	961.42957	1681.02429	-917.87012	823.25909	1711.26917	-964.14343	841.43109	1720.76001	-956.60876	755.44098	1309.58691	-759.03394	908.01349	1527.36292	-750.44080	914.92700	1373.99438	-941.87244	926.18933	1518.31470	-932.76202	924.59637	1277.40186	-866.81934	580.00317	1300.05115	-914.55023	451.63281	1302.15991	-1017.35126	290.07153	1368.42676	-1103.82288	90.05067	1420.73279	-1156.50793	76.40483	1372.76367	-968.83899	27.85895	1614.22168	-719.99384	594.73645	1589.65430	-639.33655	461.67993	1609.54370	-631.46173	288.25104	1577.78955	-568.87067	83.36102	1526.14612	-595.23810	28.86760	1584.37219	-423.75867	91.61870	1444.37793	-714.52228	1685.94836	-3102.08203	1973.03357	1023.86224	-3140.71362	2012.52014	1022.19104			 
18	0.170	1357.79553	-710.13495	1644.55933	1468.92273	-687.33661	1652.44751	1376.49255	-822.68695	1595.88440	1494.56787	-801.25653	1602.40161	1402.01892	-846.67352	1410.28015	1414.47461	-908.90918	1121.22949	1421.74988	-704.88464	1335.27271	1420.97656	-676.98615	1175.85522	1470.30115	-924.83612	1223.29773	1257.56970	-743.68054	1375.41931	1164.89697	-753.01764	1197.26025	1153.43884	-744.47589	1043.16418	1157.23914	-641.18268	982.98187	1209.06970	-515.97803	958.96674	1178.63953	-543.11414	914.36151	1184.11682	-459.89551	906.60162	1560.86890	-790.29547	1376.90869	1643.30359	-908.34430	1197.45105	1650.40710	-929.47821	1076.37097	1686.42371	-944.85840	959.99146	1683.49292	-905.90277	821.71423	1713.72656	-952.15118	839.99597	1723.25586	-944.90619	754.13171	1311.05957	-746.36206	907.07776	1528.85474	-736.19983	913.37616	1377.43298	-928.90381	925.18414	1521.80090	-918.61310	923.27142	1278.09290	-856.78693	580.02924	1300.41528	-905.75580	451.97833	1301.89832	-1011.36877	292.20825	1367.22607	-1101.64136	93.35842	1419.27148	-1154.91382	81.44700	1372.92188	-968.79700	27.89210	1616.28906	-707.25226	593.18921	1590.20544	-626.18890	460.56580	1609.45093	-615.47113	287.28452	1576.91125	-550.35260	83.21834	1524.86646	-575.94269	28.40746	1583.46167	-405.28925	93.20298	1447.10583	-702.34088	1684.93787	-3101.88672	1973.13354	1023.48810	-3140.74976	2012.44861	1022.10718			 
19	0.180	1360.44238	-698.27246	1643.90723	1471.50940	-675.02844	1651.52209	1379.47241	-810.79401	1595.19360	1497.46448	-788.82355	1601.44629	1404.81494	-834.58136	1409.20557	1417.39185	-895.83215	1119.90833	1423.80054	-692.39331	1334.55627	1422.67200	-664.01575	1175.25098	1473.15076	-912.00049	1221.80115	1259.85083	-732.66473	1374.75244	1167.07007	-741.00970	1196.74292	1155.39624	-730.83459	1043.11597	1158.72583	-627.20050	983.84814	1210.30212	-501.74500	961.29291	1179.68567	-528.33728	916.53992	1185.15063	-444.96106	909.79260	1563.43640	-777.56909	1375.66028	1645.73706	-895.40875	1195.93787	1652.92993	-916.39709	1074.86487	1688.90857	-932.01501	958.56445	1685.84546	-893.31592	820.03326	1716.02356	-939.73053	838.57422	1725.66772	-932.58075	752.72699	1312.56165	-733.22412	906.28088	1530.35278	-721.78088	911.87860	1380.97510	-915.54810	924.19525	1525.23059	-904.20160	921.87598	1278.72864	-846.02393	580.07794	1300.65063	-896.22375	452.29089	1301.67529	-1004.80176	294.57281	1365.73645	-1099.38000	97.20790	1417.45398	-1153.18420	87.42464	1372.81934	-968.48553	27.85222	1617.34021	-693.03735	592.38715	1590.90967	-612.77417	459.39456	1608.98267	-601.08984	286.06302	1575.59827	-534.94214	82.26181	1523.28723	-560.16486	27.30684	1581.69788	-389.71799	92.84835	1449.89246	-690.05225	1684.08545	-3102.01318	1972.98181	1023.90155	-3140.69556	2012.47290	1021.92322			 
